<svg width="444" height="348" viewBox="0 0 444 348" fill="none" xmlns="http://www.w3.org/2000/svg">
<rect width="444" height="348" fill="black"/>
<g clip-path="url(#clip0_2555_883)">
<path d="M221.766 161.815C213.68 161.815 207.85 167.132 207.85 175.108C207.85 183.083 214.412 188.4 222.498 188.4C227.383 188.4 231.69 186.45 234.355 183.164L228.753 179.9C227.273 181.532 225.025 182.485 222.498 182.485C218.99 182.485 216.009 180.639 214.903 177.685H235.425C235.586 176.858 235.681 176.001 235.681 175.1C235.681 167.132 229.851 161.815 221.766 161.815ZM214.837 172.523C215.753 169.577 218.257 167.723 221.758 167.723C225.266 167.723 227.771 169.577 228.679 172.523H214.837ZM300.63 161.815C292.544 161.815 286.714 167.132 286.714 175.108C286.714 183.083 293.277 188.4 301.362 188.4C306.247 188.4 310.554 186.45 313.22 183.164L307.617 179.9C306.137 181.532 303.889 182.485 301.362 182.485C297.854 182.485 294.873 180.639 293.767 177.685H314.289C314.45 176.858 314.545 176.001 314.545 175.1C314.545 167.132 308.715 161.815 300.63 161.815ZM293.709 172.523C294.624 169.577 297.129 167.723 300.63 167.723C304.138 167.723 306.643 169.577 307.551 172.523H293.709ZM265.123 175.108C265.123 179.538 267.994 182.492 272.447 182.492C275.465 182.492 277.728 181.111 278.892 178.859L284.517 182.13C282.188 186.044 277.823 188.4 272.447 188.4C264.354 188.4 258.532 183.083 258.532 175.108C258.532 167.132 264.362 161.815 272.447 161.815C277.823 161.815 282.181 164.171 284.517 168.085L278.892 171.356C277.728 169.104 275.465 167.723 272.447 167.723C268.002 167.723 265.123 170.677 265.123 175.108ZM325.531 153.692V187.662H318.94V153.692H325.531ZM145.531 150L172.593 197.262H118.469L145.531 150ZM213.189 153.692L192.895 189.138L172.6 153.692H180.21L192.895 175.846L205.58 153.692H213.189ZM256.335 162.554V169.71C255.602 169.495 254.826 169.348 253.991 169.348C249.736 169.348 246.667 172.302 246.667 176.732V187.662H240.075V162.554H246.667V169.348C246.667 165.596 250.995 162.554 256.335 162.554Z" fill="white"/>
</g>
<defs>
<clipPath id="clip0_2555_883">
<rect width="208" height="48" fill="white" transform="translate(118 150)"/>
</clipPath>
</defs>
</svg>
